<svg width="76" height="73" viewBox="0 0 76 73" fill="none" xmlns="http://www.w3.org/2000/svg">
<path d="M67.426 28.1614C65.031 28.1614 62.9234 29.1556 61.3747 30.7111C55.6747 26.7503 47.9949 24.2006 39.4848 23.928L43.9075 3.91556L57.9898 7.09061C57.9898 10.5543 60.7999 13.3766 64.2486 13.3766C67.7613 13.3766 70.5873 10.4741 70.5873 7.01043C70.5873 3.54674 67.7772 0.644287 64.2486 0.644287C61.7898 0.644287 59.6663 2.1356 58.6125 4.17213L43.0613 0.70843C42.2789 0.499966 41.5125 1.06121 41.305 1.84696L36.4512 23.912C28.005 24.2648 20.405 26.8144 14.689 30.7752C13.1403 29.1556 10.9529 28.1614 8.5579 28.1614C-0.31941 28.1614 -3.22529 40.124 4.9016 44.2131C4.6142 45.4799 4.48647 46.8269 4.48647 48.1739C4.48647 61.6118 19.5587 72.5 38.0638 72.5C56.6487 72.5 71.7209 61.6118 71.7209 48.1739C71.7209 46.8269 71.5772 45.4158 71.226 44.149C79.1932 40.0438 76.2554 28.1614 67.426 28.1614ZM17.7865 45.063C17.7865 41.5351 20.5966 38.6968 24.1251 38.6968C27.5739 38.6968 30.384 41.5191 30.384 45.063C30.384 48.5267 27.5739 51.349 24.1251 51.349C20.6125 51.365 17.7865 48.5267 17.7865 45.063ZM52.0024 60.0563C46.1907 65.8933 29.7932 65.8933 23.9814 60.0563C23.3428 59.4951 23.3428 58.5008 23.9814 57.8594C24.5403 57.2982 25.5302 57.2982 26.089 57.8594C30.5276 62.4296 45.2487 62.5098 49.8789 57.8594C50.4377 57.2982 51.4276 57.2982 51.9865 57.8594C52.6411 58.5008 52.6411 59.4951 52.0024 60.0563ZM51.8747 51.365C48.426 51.365 45.6159 48.5427 45.6159 45.079C45.6159 41.5512 48.426 38.7129 51.8747 38.7129C55.3873 38.7129 58.2134 41.5351 58.2134 45.079C58.1974 48.5267 55.3873 51.365 51.8747 51.365Z" fill="#737373"/>
</svg>
